grf
version=1
nRows=11
nColumns=46
inDegrees=yes
endheader
time	ground_force_1_vx	ground_force_1_vy	ground_force_1_vz	ground_force_1_px	ground_force_1_py	ground_force_1_pz	ground_moment_1_mx	ground_moment_1_my	ground_moment_1_mz	ground_force_2_vx	ground_force_2_vy	ground_force_2_vz	ground_force_2_px	ground_force_2_py	ground_force_2_pz	ground_moment_2_mx	ground_moment_2_my	ground_moment_2_mz	ground_force_3_vx	ground_force_3_vy	ground_force_3_vz	ground_force_3_px	ground_force_3_py	ground_force_3_pz	ground_moment_3_mx	ground_moment_3_my	ground_moment_3_mz	ground_force_4_vx	ground_force_4_vy	ground_force_4_vz	ground_force_4_px	ground_force_4_py	ground_force_4_pz	ground_moment_4_mx	ground_moment_4_my	ground_moment_4_mz	ground_force_5_vx	ground_force_5_vy	ground_force_5_vz	ground_force_5_px	ground_force_5_py	ground_force_5_pz	ground_moment_5_mx	ground_moment_5_my	ground_moment_5_mz
0.680000	0.000000	0.000000	0.000000	0.000000	0.000000	0.000000	0.000000	0.000000	0.000000	0.000000	0.000000	0.000000	0.000000	0.000000	0.000000	0.000000	0.000000	0.000000	0.000000	0.000000	0.000000	0.000000	0.000000	0.000000	0.000000	0.000000	0.000000	7.126041	458.376342	-56.309661	0.183134	0.000000	-0.899457	-0.000000	7.867062	0.000000	1.203478	455.898701	71.931871	0.220058	0.000000	-1.594346	0.000000	-4.947761	-0.000000
0.680500	0.000000	0.000000	0.000000	0.000000	0.000000	0.000000	0.000000	0.000000	0.000000	0.000000	0.000000	0.000000	0.000000	0.000000	0.000000	0.000000	0.000000	0.000000	0.000000	0.000000	0.000000	0.000000	0.000000	0.000000	0.000000	0.000000	0.000000	7.086485	458.370168	-56.318005	0.183172	0.000000	-0.899420	-0.000000	7.867193	0.000000	1.143949	455.869882	71.846097	0.220110	0.000000	-1.594365	0.000000	-4.948520	-0.000000
0.681000	0.000000	0.000000	0.000000	0.000000	0.000000	0.000000	0.000000	0.000000	0.000000	0.000000	0.000000	0.000000	0.000000	0.000000	0.000000	0.000000	0.000000	0.000000	0.000000	0.000000	0.000000	0.000000	0.000000	0.000000	0.000000	0.000000	0.000000	7.045949	458.361402	-56.328432	0.183210	0.000000	-0.899383	-0.000000	7.867242	0.000000	1.084722	455.842392	71.760419	0.220162	0.000000	-1.594384	0.000000	-4.949295	-0.000000
0.681500	0.000000	0.000000	0.000000	0.000000	0.000000	0.000000	0.000000	0.000000	0.000000	0.000000	0.000000	0.000000	0.000000	0.000000	0.000000	0.000000	0.000000	0.000000	0.000000	0.000000	0.000000	0.000000	0.000000	0.000000	0.000000	0.000000	0.000000	7.004463	458.350132	-56.340890	0.183248	0.000000	-0.899345	-0.000000	7.867208	0.000000	1.025880	455.816166	71.674930	0.220214	0.000000	-1.594403	0.000000	-4.950078	-0.000000
0.682000	0.000000	0.000000	0.000000	0.000000	0.000000	0.000000	0.000000	0.000000	0.000000	0.000000	0.000000	0.000000	0.000000	0.000000	0.000000	0.000000	0.000000	0.000000	0.000000	0.000000	0.000000	0.000000	0.000000	0.000000	0.000000	0.000000	0.000000	6.962064	458.336442	-56.355325	0.183288	0.000000	-0.899306	-0.000000	7.867093	0.000000	0.967503	455.791132	71.589724	0.220267	0.000000	-1.594422	0.000000	-4.950861	-0.000000
0.682500	0.000000	0.000000	0.000000	0.000000	0.000000	0.000000	0.000000	0.000000	0.000000	0.000000	0.000000	0.000000	0.000000	0.000000	0.000000	0.000000	0.000000	0.000000	0.000000	0.000000	0.000000	0.000000	0.000000	0.000000	0.000000	0.000000	0.000000	6.918794	458.320409	-56.371677	0.183328	0.000000	-0.899266	-0.000000	7.866895	0.000000	0.909667	455.767215	71.504892	0.220319	0.000000	-1.594441	0.000000	-4.951637	-0.000000
0.683000	0.000000	0.000000	0.000000	0.000000	0.000000	0.000000	0.000000	0.000000	0.000000	0.000000	0.000000	0.000000	0.000000	0.000000	0.000000	0.000000	0.000000	0.000000	0.000000	0.000000	0.000000	0.000000	0.000000	0.000000	0.000000	0.000000	0.000000	6.874699	458.302097	-56.389887	0.183368	0.000000	-0.899226	0.000000	7.866615	0.000000	0.852443	455.744347	71.420519	0.220372	0.000000	-1.594460	-0.000000	-4.952398	-0.000000
0.683500	0.000000	0.000000	0.000000	0.000000	0.000000	0.000000	0.000000	0.000000	0.000000	0.000000	0.000000	0.000000	0.000000	0.000000	0.000000	0.000000	0.000000	0.000000	0.000000	0.000000	0.000000	0.000000	0.000000	0.000000	0.000000	0.000000	0.000000	6.829823	458.281562	-56.409894	0.183409	0.000000	-0.899184	0.000000	7.866258	0.000000	0.795899	455.722468	71.336685	0.220425	0.000000	-1.594479	-0.000000	-4.953134	-0.000000
0.684000	0.000000	0.000000	0.000000	0.000000	0.000000	0.000000	0.000000	0.000000	0.000000	0.000000	0.000000	0.000000	0.000000	0.000000	0.000000	0.000000	0.000000	0.000000	0.000000	0.000000	0.000000	0.000000	0.000000	0.000000	0.000000	0.000000	0.000000	6.784210	458.258861	-56.431642	0.183450	0.000000	-0.899143	0.000000	7.865831	0.000000	0.740107	455.701531	71.253474	0.220478	0.000000	-1.594499	-0.000000	-4.953834	-0.000000
0.684500	0.000000	0.000000	0.000000	0.000000	0.000000	0.000000	0.000000	0.000000	0.000000	0.000000	0.000000	0.000000	0.000000	0.000000	0.000000	0.000000	0.000000	0.000000	0.000000	0.000000	0.000000	0.000000	0.000000	0.000000	0.000000	0.000000	0.000000	6.737899	458.234055	-56.455074	0.183492	0.000000	-0.899100	0.000000	7.865343	0.000000	0.685141	455.681496	71.170966	0.220531	0.000000	-1.594518	-0.000000	-4.954483	-0.000000
0.685000	0.000000	0.000000	0.000000	0.000000	0.000000	0.000000	0.000000	0.000000	0.000000	0.000000	0.000000	0.000000	0.000000	0.000000	0.000000	0.000000	0.000000	0.000000	0.000000	0.000000	0.000000	0.000000	0.000000	0.000000	0.000000	0.000000	0.000000	6.690931	458.207218	-56.480130	0.183534	0.000000	-0.899056	0.000000	7.864806	0.000000	0.631076	455.662331	71.089243	0.220584	0.000000	-1.594537	-0.000000	-4.955071	-0.000000
